<svg xmlns="http://www.w3.org/2000/svg" width="25" height="25" viewBox="0 0 25 25">
    <g fill="#00416A" fill-rule="nonzero">
        <path d="M12.378 24.66C5.552 24.66 0 19.13 0 12.331S5.552.001 12.378.001c6.825 0 12.378 5.53 12.378 12.33s-5.554 12.33-12.378 12.33zm0-23.823C6.016.837.839 5.993.839 12.33s5.177 11.494 11.539 11.494 11.538-5.156 11.538-11.494S18.74.837 12.378.837z"/>
        <path d="M17.59 12.749H7.167a.42.42 0 1 1 0-.837H17.59a.42.42 0 1 1 0 .837z"/>
        <path d="M12.378 17.94a.42.42 0 0 1-.42-.417V7.139a.42.42 0 0 1 .84 0v10.383a.42.42 0 0 1-.42.419z"/>
    </g>
</svg>
