<svg xmlns="http://www.w3.org/2000/svg" width="56" height="56" viewBox="0 0 56 56">
    <g fill="none" fill-rule="nonzero">
        <path stroke="#4A4A4A" d="M28.02 1C13.109.987 1.014 13.066 1 27.98.987 42.891 13.066 54.986 27.98 55 42.89 54.987 54.976 42.91 55 28 55 13.096 42.925 1.013 28.02 1zm-.04 49.507C15.55 50.507 5.471 40.43 5.471 28c0-12.43 10.077-22.507 22.507-22.507C40.405 5.506 50.473 15.574 50.486 28c0 12.43-10.077 22.507-22.507 22.507z"/>
        <path fill="#4A4A4A" d="M35.17 26.68a4.902 4.902 0 0 0 2.432-5.068c-.416-3.136-4.157-4.32-7.108-4.569v-4.714h-2.91V17h-1.953V12.33h-2.91V17h-5.86v3.012h2.181c.977 0 1.455.29 1.455 1.08V34.03c0 1.08-.54 1.412-1.122 1.412H17.15v3.074h5.653v4.777h2.93v-4.777h1.954v4.777h2.848v-4.777h.623c5.986 0 7.98-2.928 7.98-6.916a5.172 5.172 0 0 0-3.969-4.922zm-9.54-6.48h2.079c1.455 0 4.323.249 4.323 2.616a2.93 2.93 0 0 1-2.556 3.095H25.63V20.2zm3.222 14.953v-.021h-3.221v-6.23h3.74c.874 0 4.157.29 4.157 2.616s-1.558 3.635-4.676 3.635z"/>
    </g>
</svg>
