<svg xmlns="http://www.w3.org/2000/svg" width="15" height="14" viewBox="0 0 15 14">
    <g fill="#4A90E2" fill-rule="nonzero">
        <path d="M14.546 6.774a.427.427 0 0 0-.43.429v3.902a1.925 1.925 0 0 1-1.922 1.923H2.78a1.925 1.925 0 0 1-1.923-1.923V7.14A.427.427 0 0 0 .43 6.71.427.427 0 0 0 0 7.14v3.965a2.784 2.784 0 0 0 2.78 2.781h9.414a2.784 2.784 0 0 0 2.78-2.78V7.202a.43.43 0 0 0-.428-.43z"/>
        <path d="M7.185 10.48a.419.419 0 0 0 .604 0l2.727-2.727a.428.428 0 0 0 0-.607.428.428 0 0 0-.607 0L7.916 9.14V.437a.427.427 0 0 0-.429-.43.427.427 0 0 0-.429.43v8.704L5.063 7.146a.428.428 0 0 0-.607 0 .428.428 0 0 0 0 .607l2.73 2.726z"/>
    </g>
</svg>
