<svg xmlns="http://www.w3.org/2000/svg" width="20" height="24" viewBox="0 0 20 24">
    <g fill="#3954E5" fill-rule="nonzero">
        <path d="M16.46 8.712V6.281C16.46 2.818 13.35 0 9.53 0 5.707 0 2.598 2.818 2.598 6.28v2.432A3.134 3.134 0 0 0 0 11.795v8.465a3.135 3.135 0 0 0 3.131 3.13h12.797a3.135 3.135 0 0 0 3.13-3.13v-8.466a3.134 3.134 0 0 0-2.598-3.082zM3.465 6.281c0-2.986 2.72-5.415 6.064-5.415s6.065 2.429 6.065 5.415v2.382H3.465V6.281zm14.728 13.978a2.268 2.268 0 0 1-2.265 2.265H3.13A2.268 2.268 0 0 1 .866 20.26v-8.465A2.268 2.268 0 0 1 3.131 9.53h12.797a2.268 2.268 0 0 1 2.265 2.265v8.465z"/>
        <path d="M9.53 12.128c-.956 0-1.733.777-1.733 1.733v2.599c0 .955.777 1.733 1.732 1.733.956 0 1.733-.778 1.733-1.733V13.86c0-.956-.777-1.733-1.733-1.733zm.866 4.332a.867.867 0 0 1-1.733 0V13.86a.867.867 0 0 1 1.733 0v2.599z"/>
    </g>
</svg>
