<svg xmlns="http://www.w3.org/2000/svg" width="27" height="34" viewBox="0 0 27 34">
    <g fill="#E16C7A" fill-rule="nonzero">
        <path d="M23.318 12.342V8.898C23.318 3.992 18.913 0 13.5 0 8.086 0 3.682 3.992 3.682 8.898v3.444A4.44 4.44 0 0 0 0 16.71v11.992a4.44 4.44 0 0 0 4.436 4.435h18.128A4.441 4.441 0 0 0 27 28.7V16.71a4.44 4.44 0 0 0-3.682-4.367zM4.91 8.898c0-4.23 3.854-7.67 8.591-7.67 4.737 0 8.59 3.44 8.59 7.67v3.375H4.91V8.898zM25.773 28.7c0 1.77-1.44 3.21-3.209 3.21H4.436a3.213 3.213 0 0 1-3.209-3.21V16.71c0-1.77 1.44-3.209 3.209-3.209h18.128c1.77 0 3.209 1.44 3.209 3.209V28.7z"/>
        <path d="M13.5 17.182a2.457 2.457 0 0 0-2.455 2.454v3.682c0 1.354 1.101 2.455 2.455 2.455s2.455-1.101 2.455-2.455v-3.682c0-1.353-1.101-2.454-2.455-2.454zm1.227 6.136a1.229 1.229 0 0 1-2.454 0v-3.682a1.229 1.229 0 0 1 2.454 0v3.682z"/>
    </g>
</svg>
