<svg xmlns="http://www.w3.org/2000/svg" width="21" height="21" viewBox="0 0 21 21">
    <g fill="none" fill-rule="nonzero" stroke="#FFF">
        <path d="M20.184 11.899a.112.112 0 0 1-.105.104h-1.722l-.183.68a9.004 9.004 0 0 1-.73 1.803l-.34.601 1.227 1.229c.052.052.052.104 0 .156l-1.854 1.856c-.052.052-.104.052-.156 0L15.094 17.1l-.6.34a7.668 7.668 0 0 1-1.801.731l-.679.183v1.725a.112.112 0 0 1-.104.105H9.274a.112.112 0 0 1-.105-.105v-1.725l-.678-.183a8.978 8.978 0 0 1-1.801-.732l-.6-.34-1.227 1.229c-.052.052-.105.052-.157 0l-1.853-1.856c-.026-.026-.026-.052-.026-.078 0-.026 0-.052.026-.078l1.227-1.229-.34-.6a7.69 7.69 0 0 1-.73-1.804l-.183-.68H1.104A.112.112 0 0 1 1 11.9V9.285c0-.052.052-.104.104-.104h1.723l.183-.68a9.004 9.004 0 0 1 .73-1.803l.34-.602-1.227-1.228c-.026-.026-.026-.052-.026-.078 0-.026 0-.053.026-.079l1.853-1.855c.052-.053.105-.053.157 0L6.09 4.084l.6-.34a7.668 7.668 0 0 1 1.8-.732l.68-.182V1.105c0-.053.052-.105.104-.105h2.636c.052 0 .104.052.104.105V2.83l.679.182a8.978 8.978 0 0 1 1.8.732l.601.34 1.227-1.228c.052-.053.104-.053.156 0l1.854 1.855c.052.053.052.105 0 .157l-1.227 1.228.34.602a7.69 7.69 0 0 1 .73 1.803l.183.68h1.722c.052 0 .105.052.105.104v2.614z"/>
        <path d="M10.592 6.481a4.116 4.116 0 0 0-4.111 4.11 4.116 4.116 0 0 0 4.11 4.112 4.116 4.116 0 0 0 4.112-4.111 4.116 4.116 0 0 0-4.111-4.111z"/>
    </g>
</svg>
