<svg xmlns="http://www.w3.org/2000/svg" width="18" height="21" viewBox="0 0 18 21">
    <g fill="none" fill-rule="nonzero" stroke="#FFF">
        <path d="M5.673 4.716c0-.013.005-.027.005-.036.148-3.22 2.434-3.566 3.413-3.566H9.145c1.212.027 3.274.521 3.413 3.566 0 .014 0 .027.005.036.004.032.319 3.086-1.11 4.694-.566.638-1.32.952-2.313.96h-.045c-.988-.008-1.747-.322-2.308-.96-1.424-1.6-1.118-4.667-1.114-4.694z"/>
        <path stroke-linecap="round" d="M11.84 12.648c.076.054 1.863 1.298 4.1 1.873 1.047.373 1.163 1.491 1.195 2.515 0 .04 0 .076.004.112.005.404-.022 1.029-.094 1.388-.728.413-3.58 1.842-7.918 1.842-4.32 0-7.19-1.433-7.923-1.846-.072-.36-.103-.984-.094-1.388 0-.036.004-.072.004-.112.032-1.025.149-2.143 1.195-2.516 2.237-.575 4.024-1.823 4.1-1.872"/>
    </g>
</svg>
