<svg xmlns="http://www.w3.org/2000/svg" width="24" height="24" viewBox="0 0 24 24">
    <g fill="none" fill-rule="nonzero">
        <path fill="#D8D8D8" fill-opacity=".013" d="M0 0h24v24H0z"/>
        <path fill="#457199" d="M11.815 3a.674.674 0 0 0-.176.028 7.772 7.772 0 0 0-3.063 1.72 7.015 7.015 0 0 0-2.992-.02.755.755 0 0 0-.598.738v1.162a7.028 7.028 0 0 0 6.26 6.978v3.091a7.74 7.74 0 0 0-6.268-3.204c-.06 0-.12.004-.247.012A.755.755 0 0 0 4 14.26C4.008 18.527 7.481 22 11.744 22c.042 0 .092-.003.158-.006a.763.763 0 0 0 .198 0c.051 0 .102.006.153.006 4.265 0 7.74-3.473 7.747-7.74.002-.409-.39-.746-.797-.76-.06-.007-.12-.007-.181-.007a7.739 7.739 0 0 0-6.27 3.208v-3.095a7.03 7.03 0 0 0 6.262-6.978V5.466a.753.753 0 0 0-.599-.738 7.049 7.049 0 0 0-3.053.033c-.909-.812-2.063-1.41-3.37-1.74a.658.658 0 0 0-.177-.02zm.032 1.583c.948.22 1.81.548 2.553.97a8.892 8.892 0 0 0-2.358 1.405A8.907 8.907 0 0 0 9.6 5.52a9.011 9.011 0 0 1 2.247-.936zM6.945 6.167c1.745-.008 3.375.822 4.448 2.262.29.387.924.387 1.214 0 1.184-1.588 3.038-2.427 4.993-2.233v.54c0 3.179-2.512 5.764-5.6 5.764-3.088 0-5.6-2.585-5.6-5.763v-.54c.183-.02.364-.03.545-.03zM5.6 14.875c2.904.274 5.241 2.6 5.6 5.542-2.904-.274-5.24-2.6-5.6-5.542zm12.8 0c-.359 2.943-2.696 5.268-5.6 5.542.36-2.943 2.696-5.269 5.6-5.542z" opacity=".699"/>
    </g>
</svg>
