<svg xmlns="http://www.w3.org/2000/svg" width="24" height="24" viewBox="0 0 24 24">
    <g fill="none" fill-rule="nonzero" opacity=".702">
        <path fill="#D8D8D8" fill-opacity=".013" d="M0 0h24v24H0z"/>
        <g fill="#457199">
            <path d="M18.679 9.737h-.257a6.683 6.683 0 0 0-.256-.642l.183-.183a1.36 1.36 0 0 0 0-1.925l-1.301-1.3a1.363 1.363 0 0 0-.953-.404 1.33 1.33 0 0 0-.953.403l-.183.183a22.478 22.478 0 0 0-.642-.274v-.239c0-.751-.604-1.356-1.356-1.356h-1.869c-.751 0-1.356.605-1.356 1.356v.239c-.22.073-.44.164-.641.256l-.184-.183a1.363 1.363 0 0 0-.953-.403 1.33 1.33 0 0 0-.953.403l-1.3 1.301a1.363 1.363 0 0 0-.404.953c0 .348.147.697.403.953l.184.183c-.092.202-.184.422-.275.642h-.239C4.604 9.737 4 10.34 4 11.093v1.833c0 .751.605 1.356 1.356 1.356h.238c.074.22.165.44.275.641l-.183.184a1.363 1.363 0 0 0-.403.953c0 .348.146.696.403.953l1.301 1.3c.257.257.605.404.953.404.367 0 .696-.147.953-.403l.183-.183c.202.091.422.183.642.256v.257c0 .751.604 1.356 1.356 1.356h1.85c.752 0 1.357-.605 1.357-1.356v-.22c.22-.073.44-.165.641-.275l.183.183c.257.257.605.403.953.403.367 0 .697-.146.953-.403l1.301-1.301a1.36 1.36 0 0 0 0-1.924l-.183-.184c.092-.201.183-.421.257-.641h.256c.752 0 1.356-.605 1.356-1.356v-1.833c.037-.752-.568-1.356-1.319-1.356zm-.279 3.135c0 .035-.035.07-.07.07h-1.149l-.122.453c-.122.419-.279.82-.488 1.203l-.226.401.819.82c.034.035.034.07 0 .105l-1.237 1.238c-.035.035-.07.035-.104 0l-.819-.82-.4.227c-.384.21-.784.384-1.202.488l-.453.122v1.151c0 .035-.035.07-.07.07h-1.758a.075.075 0 0 1-.07-.07v-1.15l-.453-.123a5.99 5.99 0 0 1-1.202-.488l-.4-.227-.819.82c-.034.035-.07.035-.104 0l-1.237-1.238c-.017-.018-.017-.035-.017-.053 0-.017 0-.034.017-.052l.819-.82-.226-.4a5.131 5.131 0 0 1-.488-1.204l-.122-.453h-1.15a.075.075 0 0 1-.069-.07v-1.744c0-.035.035-.07.07-.07h1.149l.122-.453c.122-.419.279-.82.488-1.203L7.655 9l-.819-.82c-.017-.018-.017-.035-.017-.052 0-.018 0-.035.017-.053l1.237-1.238c.035-.035.07-.035.104 0l.819.82.4-.227c.384-.21.784-.384 1.202-.488l.453-.122V5.67c0-.035.035-.07.07-.07h1.758c.035 0 .07.035.07.07v1.15l.453.123a5.99 5.99 0 0 1 1.202.488l.4.227.819-.82c.034-.035.07-.035.104 0l1.237 1.238c.034.035.034.07 0 .105l-.819.82.226.4c.21.384.384.785.488 1.204l.122.453h1.15c.034 0 .069.035.069.07v1.744z"/>
            <path d="M12.1 8.6c-1.93 0-3.5 1.57-3.5 3.5s1.57 3.5 3.5 3.5 3.5-1.57 3.5-3.5-1.57-3.5-3.5-3.5zm.05 5.55c-1.096 0-2-.904-2-2s.904-2 2-2 2 .904 2 2a2 2 0 0 1-2 2z"/>
        </g>
    </g>
</svg>
