<svg xmlns="http://www.w3.org/2000/svg" width="22" height="14" viewBox="0 0 22 14">
    <g fill="#FFF" fill-rule="nonzero" stroke="#FFF" stroke-width="1.5">
        <path d="M20.772 10.162c-.679-.063-1.154-.316-1.716-.878-1.352-1.352-1.352-3.364 0-4.716.562-.563 1.037-.815 1.716-.879V1.302H1.17v2.387c.679.064 1.154.316 1.716.879 1.352 1.352 1.352 3.364 0 4.716-.562.562-1.037.815-1.716.878v2.388h19.603v-2.388zM13.462.54h8.072v3.847l-.685.06c-.487.042-.796.2-1.254.66-1.047 1.046-1.047 2.591 0 3.638.458.458.767.617 1.254.66l.685.06v3.846H.407V9.465l.685-.06c.488-.043.796-.202 1.255-.66 1.046-1.047 1.046-2.592 0-3.639-.459-.458-.768-.617-1.255-.66l-.685-.06V.54h13.816v2.47h-.761V.54zm.75 2.47h-.739v-.75h.739v.75z"/>
        <path d="M14.223 4.054h-.762v2.089h.762V4.054zM14.223 7.71h-.762v2.088h.762V7.709z"/>
    </g>
</svg>
