<?xml version="1.0" encoding="UTF-8"?>
<svg width="24px" height="13px" viewBox="0 0 24 13" version="1.1" xmlns="http://www.w3.org/2000/svg" xmlns:xlink="http://www.w3.org/1999/xlink">
    <!-- Generator: Sketch 51.2 (57519) - http://www.bohemiancoding.com/sketch -->
    <title>noun_movie ticket_1814256</title>
    <desc>Created with Sketch.</desc>
    <defs></defs>
    <g id="Design-Phase-2" stroke="none" stroke-width="1" fill="none" fill-rule="evenodd">
        <g id="Assects" transform="translate(-1093.000000, -157.000000)" fill="#FFFFFF" fill-rule="nonzero" stroke="#FFFFFF" stroke-width="0.3">
            <g id="noun_movie-ticket_1814256" transform="translate(1094.000000, 158.000000)">
                <g id="Group">
                    <path d="M5.36585366e-07,0.101067907 L5.36585366e-07,0.380137674 L5.36585366e-07,3.17083535 L5.36585366e-07,3.44990512 L0.26829322,3.44990512 C1.60500785,3.44990512 2.68292737,4.57114047 2.68292737,5.96154419 C2.68292737,7.3519814 1.60503468,8.47317209 0.26829322,8.47317209 L5.36585366e-07,8.47317209 L5.36585366e-07,8.75224186 L5.36585366e-07,11.5429395 L5.36585366e-07,11.8220093 L0.26829322,11.8220093 L21.7317068,11.8220093 L21.9999995,11.8220093 L21.9999995,11.5429395 L21.9999995,8.75224186 L21.9999995,8.47317209 L21.7317068,8.47317209 C20.3949653,8.47317209 19.3170726,7.3519814 19.3170726,5.96154419 C19.3170726,4.57114047 20.3949921,3.44990512 21.7317068,3.44990512 L21.9999995,3.44990512 L21.9999995,3.17083535 L21.9999995,0.380137674 L21.9999995,0.101067907 L21.7317068,0.101067907 L0.26829322,0.101067907 L5.36585366e-07,0.101067907 Z M0.536585902,0.659207442 L15.5609761,0.659207442 L15.5609761,2.05455628 L16.0975615,2.05455628 L16.0975615,0.659207442 L21.4634141,0.659207442 L21.4634141,2.94409116 C19.9679507,3.09193674 18.7804873,4.36811442 18.7804873,5.96154419 C18.7804873,7.55453023 19.9685678,8.82178605 21.4634141,8.97025116 L21.4634141,11.2638698 L16.0975615,11.2638698 L16.0975615,9.86852093 L15.5609761,9.86852093 L15.5609761,11.2638698 L0.536585902,11.2638698 L0.536585902,8.97025116 C2.03143224,8.82178605 3.21951273,7.55453023 3.21951273,5.96154419 C3.21951273,4.36811442 2.03204932,3.09193674 0.536585902,2.94409116 L0.536585902,0.659207442 Z M15.5609761,3.17083535 L15.5609761,5.40340465 L16.0975615,5.40340465 L16.0975615,3.17083535 L15.5609761,3.17083535 Z M15.5609761,6.51968372 L15.5609761,8.75224186 L16.0975615,8.75224186 L16.0975615,6.51968372 L15.5609761,6.51968372 Z" id="Shape"></path>
                </g>
            </g>
        </g>
    </g>
</svg>