<?xml version="1.0" encoding="UTF-8"?>
<svg width="22px" height="22px" viewBox="0 0 22 22" version="1.1" xmlns="http://www.w3.org/2000/svg" xmlns:xlink="http://www.w3.org/1999/xlink">
    <!-- Generator: Sketch 51.2 (57519) - http://www.bohemiancoding.com/sketch -->
    <title>menu/icon/user</title>
    <desc>Created with Sketch.</desc>
    <defs></defs>
    <g id="menu/icon/user" stroke="none" stroke-width="1" fill="none" fill-rule="evenodd">
        <rect id="Rectangle-path" x="0" y="0" width="22" height="22"></rect>
        <g id="User" transform="translate(3.000000, 1.000000)" fill-rule="nonzero">
            <g id="avatar">
                <path d="M4.67303863,3.71639443 C4.67303863,3.70292056 4.67752992,3.6894467 4.67752992,3.68046413 C4.8257424,0.460211103 7.11180766,0.114381978 8.0909083,0.114381978 L8.10887345,0.114381978 C8.11785602,0.114381978 8.13132988,0.114381978 8.14480375,0.114381978 C9.35745133,0.141329702 11.4189522,0.635371309 11.5581821,3.68046413 C11.5581821,3.69393799 11.5581821,3.70741185 11.5626734,3.71639443 C11.5671647,3.74783344 11.8815548,6.80190883 10.4533254,8.4097897 C9.88742323,9.0475525 9.13288696,9.36194262 8.14031246,9.37092519 C8.13132988,9.37092519 8.1268386,9.37092519 8.11785602,9.37092519 C8.10887345,9.37092519 8.10438216,9.37092519 8.09539959,9.37092519 C7.10731637,9.36194262 6.34828881,9.0475525 5.78687789,8.4097897 C4.3631398,6.81089141 4.66854734,3.74334215 4.67303863,3.71639443 Z" id="Shape" stroke="#FFFFFF"></path>
                <path d="M10.8395762,11.6480079 C10.915928,11.7019033 12.7034604,12.9459899 14.9401215,13.5208747 C15.9865914,13.8936515 16.1033649,15.0119821 16.1348039,16.0359956 C16.1348039,16.0764172 16.1348039,16.1123475 16.1392952,16.1482778 C16.1437865,16.5524937 16.1168388,17.1767826 16.0449782,17.5360856 C15.3173896,17.949284 12.4654222,19.3775134 8.1268386,19.3775134 C3.80622017,19.3775134 0.936287561,17.9447927 0.204207724,17.5315943 C0.132347127,17.1722913 0.100908116,16.5480024 0.10989069,16.1437865 C0.10989069,16.1078562 0.114381978,16.0719259 0.114381978,16.0315043 C0.145820989,15.0074908 0.26259446,13.8891603 1.30906441,13.5163834 C3.54572551,12.9414986 5.33325787,11.6929207 5.40960975,11.6435166" id="Shape" stroke="#FFFFFF" stroke-linecap="round"></path>
                <g id="Group" transform="translate(7.000000, 11.000000)" fill="#FFFFFF">
                    <polygon id="Triangle-2" points="1 2 0 0 2 0"></polygon>
                    <polygon id="Triangle-2-Copy" transform="translate(1.000000, 5.000000) rotate(-180.000000) translate(-1.000000, -5.000000) " points="1 8 0 2 2 2"></polygon>
                    <rect id="Rectangle-4" x="0" y="2" width="2" height="2"></rect>
                </g>
            </g>
        </g>
    </g>
</svg>