<svg xmlns="http://www.w3.org/2000/svg" width="24" height="24" viewBox="0 0 24 24">
    <g fill="none" fill-rule="nonzero" opacity=".702">
        <path fill="#D8D8D8" fill-opacity=".013" d="M0 0h24v24H0z"/>
        <g fill="#457199">
            <path d="M12.296 12.597h.13c1.194-.02 2.16-.44 2.872-1.242 1.568-1.767 1.307-4.798 1.279-5.087-.102-2.17-1.128-3.21-1.976-3.694-.63-.362-1.368-.558-2.19-.574h-.07c-.452 0-1.34.073-2.191.558-.855.485-1.898 1.523-2 3.71-.028.29-.289 3.32 1.279 5.087.709.803 1.674 1.222 2.867 1.242zM9.238 6.37c0-.012.004-.024.004-.032.134-2.92 2.207-3.234 3.095-3.234h.049c1.1.024 2.969.472 3.095 3.234 0 .012 0 .024.004.032.004.029.29 2.798-1.006 4.256-.513.578-1.197.864-2.097.872h-.04c-.897-.008-1.585-.294-2.094-.872-1.291-1.45-1.014-4.231-1.01-4.256z"/>
            <path d="M20.731 17.623v-.012c0-.033-.004-.065-.004-.102-.025-.806-.077-2.692-1.845-3.295l-.04-.012c-1.838-.468-3.365-1.527-3.381-1.54a.55.55 0 1 0-.631.9c.069.05 1.69 1.178 3.718 1.699.949.338 1.055 1.352 1.083 2.28 0 .037 0 .07.004.103.004.366-.02.932-.085 1.258-.66.375-3.246 1.67-7.18 1.67-3.918 0-6.521-1.3-7.185-1.674-.065-.326-.093-.892-.085-1.259 0-.032.004-.065.004-.101.028-.929.134-1.943 1.083-2.281 2.028-.521 3.65-1.654 3.719-1.698a.55.55 0 1 0-.632-.9c-.016.012-1.535 1.07-3.38 1.539l-.04.012c-1.768.607-1.821 2.493-1.846 3.295 0 .037 0 .07-.004.102v.012c-.004.212-.008 1.3.208 1.845.04.106.114.196.212.257.122.081 3.05 1.946 7.95 1.946s7.828-1.869 7.95-1.946a.545.545 0 0 0 .211-.257c.204-.542.2-1.629.196-1.84z"/>
        </g>
    </g>
</svg>
