<svg xmlns="http://www.w3.org/2000/svg" width="24" height="24" viewBox="0 0 24 24">
    <g fill="none" fill-rule="nonzero" opacity=".7">
        <path fill="#D8D8D8" fill-opacity=".013" d="M0 0h24v24H0z"/>
        <g fill="#457199">
            <path d="M7.857 21h10.447c.394 0 .696-.31.696-.714V7.619v-.048-.047a.693.693 0 0 0-.696-.714h-.465V3.714A.693.693 0 0 0 17.143 3h-8.59C7.138 3 6 4.167 6 5.619v13.476C6 20.143 6.836 21 7.857 21zm9.699-12.473V19.5H7.904a.462.462 0 0 1-.46-.461V8.25c.345.184.736.277 1.15.277h8.962zM8.648 4.5h8.185v2.25H8.648c-.674 0-1.204-.495-1.204-1.125S7.974 4.5 8.648 4.5z"/>
            <path d="M10.643 18h4.714c.364 0 .643-.355.643-.818v-4.364c0-.463-.279-.818-.643-.818h-4.714c-.364 0-.643.355-.643.818v4.364c0 .463.279.818.643.818zm.857-4.286h3v2.572h-3v-2.572zM10.643 11h4.714c.364 0 .643-.325.643-.75s-.279-.75-.643-.75h-4.714c-.364 0-.643.325-.643.75s.279.75.643.75z"/>
        </g>
    </g>
</svg>
