<svg xmlns="http://www.w3.org/2000/svg" width="10" height="14" viewBox="0 0 10 14">
    <path fill="#DDBA64" fill-rule="nonzero" d="M7.807 6.119a2.09 2.09 0 0 0 1.037-2.16C8.667 2.62 7.072 2.115 5.814 2.01V0H4.572v1.992H3.74V0H2.5v1.992H0v1.285h.93c.417 0 .62.123.62.46v5.517c0 .46-.23.602-.478.602H.124v1.31h2.41v2.037h1.25v-2.036h.833v2.036h1.214v-2.036h.266c2.552 0 3.403-1.249 3.403-2.95A2.205 2.205 0 0 0 7.807 6.12zM3.74 3.356h.886c.62 0 1.843.106 1.843 1.116a1.25 1.25 0 0 1-1.09 1.32H3.74V3.355zm1.373 6.376v-.009H3.74V7.067h1.595c.372 0 1.772.124 1.772 1.115 0 .992-.664 1.55-1.994 1.55z"/>
</svg>
