<svg xmlns="http://www.w3.org/2000/svg" width="17" height="20" viewBox="0 0 17 20">
    <path fill="none" fill-rule="nonzero" stroke="#F5A623" d="M9.447 4.935c1.376-1.156 2.295-3.76 1.73-3.873-.752-.152-2.384.512-3.173.629-1.12.135-2.338-1.213-3.022-.462-.556.611.399 2.834 1.893 3.802-4.458 2.191-10.723 13.189.207 13.987 15.124 1.104 7.55-11.948 2.365-14.083zm1.3 8.673a1.59 1.59 0 0 1-.614 1.08c-.359.278-.809.407-1.256.443v.474c0 .127-.055.25-.15.333a.449.449 0 0 1-.48.071.449.449 0 0 1-.26-.404v-.518a2.916 2.916 0 0 1-.227-.052 2.184 2.184 0 0 1-1.088-.67 1.961 1.961 0 0 1-.391-.715c-.015-.049-.03-.099-.035-.15a.445.445 0 0 1 .865-.185c.016.051.028.104.047.155.019.05.042.099.068.146.053.091.12.176.196.25.157.151.357.25.566.308v-1.76c-.408-.106-.83-.242-1.167-.504a1.357 1.357 0 0 1-.393-.473 1.48 1.48 0 0 1-.138-.637 1.517 1.517 0 0 1 .498-1.146c.328-.301.763-.47 1.2-.531V8.63c0-.127.055-.25.15-.333a.449.449 0 0 1 .48-.071.449.449 0 0 1 .26.404v.489c.058.007.116.016.173.027.429.077.848.254 1.162.563a1.697 1.697 0 0 1 .418.674.988.988 0 0 1 .042.159.445.445 0 0 1-.855.224c-.019-.048-.028-.1-.047-.148a.849.849 0 0 0-.283-.36 1.442 1.442 0 0 0-.61-.24v1.685c.256.062.513.129.76.226.371.146.723.371.926.726a4.165 4.165 0 0 1 .001.002c.063.109.033.057.002.002.161.285.214.625.18.948z"/>
</svg>
