<svg xmlns="http://www.w3.org/2000/svg" width="18" height="18" viewBox="0 0 18 18">
    <path fill="#FFF" fill-rule="nonzero" stroke="#EA1C49" d="M16.95 8.112c-.025-.225-.288-.394-.514-.394-.734 0-1.384-.43-1.657-1.096a1.782 1.782 0 0 1 .447-1.979.444.444 0 0 0 .05-.603 7.916 7.916 0 0 0-1.268-1.28.445.445 0 0 0-.608.05c-.477.527-1.334.724-1.996.447a1.777 1.777 0 0 1-1.08-1.736.444.444 0 0 0-.393-.468 7.987 7.987 0 0 0-1.8-.004.445.445 0 0 0-.396.457A1.78 1.78 0 0 1 6.64 3.213c-.654.267-1.505.073-1.98-.45a.446.446 0 0 0-.604-.051c-.48.376-.916.806-1.295 1.279a.445.445 0 0 0 .048.608c.557.504.737 1.307.447 1.996-.276.658-.959 1.082-1.74 1.082a.435.435 0 0 0-.462.392 8.014 8.014 0 0 0-.004 1.82c.025.226.295.393.525.393A1.755 1.755 0 0 1 3.22 11.38c.28.681.1 1.476-.448 1.978a.445.445 0 0 0-.048.603c.372.473.798.904 1.265 1.28.184.148.45.127.61-.048.478-.53 1.334-.726 1.994-.449.69.29 1.125.987 1.082 1.737a.444.444 0 0 0 .393.467 7.952 7.952 0 0 0 1.8.005.445.445 0 0 0 .396-.458 1.778 1.778 0 0 1 1.094-1.706c.659-.27 1.506-.073 1.982.45.158.172.42.193.603.05a7.965 7.965 0 0 0 1.295-1.279.444.444 0 0 0-.048-.608 1.773 1.773 0 0 1-.448-1.996 1.791 1.791 0 0 1 1.636-1.084l.1.002c.229.02.44-.158.467-.392.07-.601.072-1.213.004-1.82zm-7.937 3.574a2.671 2.671 0 0 1-2.669-2.669A2.671 2.671 0 0 1 9.013 6.35a2.671 2.671 0 0 1 2.668 2.668 2.671 2.671 0 0 1-2.668 2.669z"/>
</svg>
