<svg xmlns="http://www.w3.org/2000/svg" width="14" height="17" viewBox="0 0 14 17">
    <g fill="none" fill-rule="nonzero">
        <path fill="#FFF" stroke="#73C01E" d="M7.094 16.342h5.123a.956.956 0 0 0 .956-.956V1.956A.956.956 0 0 0 12.217 1H5.39v.316a.929.929 0 0 1 .005.101V4.035c0 .743-.603 1.346-1.345 1.346H1.432c-.027 0-.056-.002-.083-.004h-.333v10.009c0 .527.428.956.956.956h5.122zm.193-3.652h-3.34c-.25 0-.452-.112-.452-.25s.202-.25.452-.25h3.342c.25 0 .451.112.451.25s-.204.25-.453.25zm3.342-2.305H3.947c-.25 0-.452-.112-.452-.25s.202-.25.452-.25h6.682c.25 0 .452.112.452.25s-.203.25-.452.25zM3.947 7.437h6.682c.25 0 .452.112.452.25s-.203.25-.452.25H3.947c-.25 0-.452-.112-.452-.25s.202-.25.452-.25z"/>
        <path fill="#73C01E" d="M.904 4.325h2.625a.802.802 0 0 0 .795-.795V.902A.402.402 0 0 0 3.637.62L.618 3.64a.402.402 0 0 0 .286.686z"/>
    </g>
</svg>
