<svg xmlns="http://www.w3.org/2000/svg" width="20" height="20" viewBox="0 0 20 20">
    <g fill="none" fill-rule="nonzero">
        <path stroke="#0AB7D9" d="M16.547 14.92c-.513 0-.991-.252-1.282-.674l-.76-1.107a5.158 5.158 0 0 1-4.523 2.644 5.19 5.19 0 0 1-5.156-4.663h.493a.518.518 0 0 0 .427-.812l-.756-1.1-1.145-1.664a.518.518 0 0 0-.854 0l-1.9 2.764a.518.518 0 0 0 .427.812h.535a7.888 7.888 0 0 0 2.31 5.1 7.894 7.894 0 0 0 5.62 2.327A7.894 7.894 0 0 0 15.6 16.22a8 8 0 0 0 1.056-1.304 1.576 1.576 0 0 1-.11.004zM18.905 8.724a.518.518 0 0 0-.458-.277h-.535a7.888 7.888 0 0 0-2.31-5.1 7.894 7.894 0 0 0-5.62-2.328 7.894 7.894 0 0 0-5.618 2.327 8 8 0 0 0-1.056 1.305 1.554 1.554 0 0 1 1.391.67l.761 1.106a5.158 5.158 0 0 1 4.522-2.644 5.19 5.19 0 0 1 5.157 4.664h-.493a.518.518 0 0 0-.427.812l.756 1.098 1.145 1.665a.518.518 0 0 0 .854 0l.686-.998 1.214-1.765a.518.518 0 0 0 .031-.535z"/>
        <path fill="#0AB7D9" d="M10.377 9.265h-.79a.272.272 0 0 1-.27-.272V8.6c0-.15.121-.272.27-.272h.79c.15 0 .272.122.272.272a.518.518 0 0 0 1.036 0c0-.68-.52-1.24-1.184-1.302v-.278a.518.518 0 0 0-1.037 0v.278A1.31 1.31 0 0 0 8.28 8.599v.394a1.31 1.31 0 0 0 1.308 1.308h.79c.149 0 .27.122.27.272v.395c0 .15-.121.271-.27.271h-.79a.272.272 0 0 1-.272-.271.518.518 0 0 0-1.036 0c0 .68.52 1.24 1.184 1.302v.277a.518.518 0 0 0 1.037 0v-.278a1.31 1.31 0 0 0 1.184-1.301v-.395a1.31 1.31 0 0 0-1.308-1.308z"/>
    </g>
</svg>
